<svg width="53" height="54" viewBox="0 0 53 54" fill="none" xmlns="http://www.w3.org/2000/svg">
<path d="M46.875 0.75H5.625C2.51953 0.75 0 3.26953 0 6.375V47.625C0 50.7305 2.51953 53.25 5.625 53.25H46.875C49.9805 53.25 52.5 50.7305 52.5 47.625V6.375C52.5 3.26953 49.9805 0.75 46.875 0.75ZM32.4961 45.7148C31.5117 45.8906 31.1484 45.2812 31.1484 44.7773C31.1484 44.1445 31.1719 40.9102 31.1719 38.2969C31.1719 36.4688 30.5625 35.3086 29.8477 34.6992C34.1836 34.2188 38.7539 33.6211 38.7539 26.1328C38.7539 24 37.9922 22.9336 36.75 21.5625C36.9492 21.0586 37.6172 18.9844 36.5508 16.2891C34.9219 15.7852 31.1953 18.3867 31.1953 18.3867C29.6484 17.9531 27.9727 17.7305 26.3203 17.7305C24.668 17.7305 22.9922 17.9531 21.4453 18.3867C21.4453 18.3867 17.7188 15.7852 16.0898 16.2891C15.0234 18.9727 15.6797 21.0469 15.8906 21.5625C14.6484 22.9336 14.0625 24 14.0625 26.1328C14.0625 33.5859 18.4336 34.2188 22.7695 34.6992C22.207 35.2031 21.7031 36.0703 21.5273 37.3125C20.4141 37.8164 17.5664 38.6836 15.8672 35.6836C14.8008 33.832 12.8789 33.6797 12.8789 33.6797C10.9805 33.6562 12.75 34.875 12.75 34.875C14.0156 35.4609 14.9062 37.7109 14.9062 37.7109C16.043 41.1914 21.4805 40.0195 21.4805 40.0195C21.4805 41.6484 21.5039 44.2969 21.5039 44.7773C21.5039 45.2812 21.1523 45.8906 20.1562 45.7148C12.4219 43.125 7.00781 35.7656 7.00781 27.1641C7.00781 16.4062 15.2344 8.23828 25.9922 8.23828C36.75 8.23828 45.4688 16.4062 45.4688 27.1641C45.4805 35.7656 40.2305 43.1367 32.4961 45.7148ZM21 38.5547C20.7773 38.6016 20.5664 38.5078 20.543 38.3555C20.5195 38.1797 20.6719 38.0273 20.8945 37.9805C21.1172 37.957 21.3281 38.0508 21.3516 38.2031C21.3867 38.3555 21.2344 38.5078 21 38.5547ZM19.8867 38.4492C19.8867 38.6016 19.7109 38.7305 19.4766 38.7305C19.2188 38.7539 19.043 38.625 19.043 38.4492C19.043 38.2969 19.2188 38.168 19.4531 38.168C19.6758 38.1445 19.8867 38.2734 19.8867 38.4492ZM18.2812 38.3203C18.2344 38.4727 18 38.543 17.8008 38.4727C17.5781 38.4258 17.4258 38.25 17.4727 38.0977C17.5195 37.9453 17.7539 37.875 17.9531 37.9219C18.1875 37.9922 18.3398 38.168 18.2812 38.3203ZM16.8398 37.6875C16.7344 37.8164 16.5117 37.793 16.3359 37.6172C16.1602 37.4648 16.1133 37.2422 16.2305 37.1367C16.3359 37.0078 16.5586 37.0312 16.7344 37.207C16.8867 37.3594 16.9453 37.5938 16.8398 37.6875ZM15.7734 36.6211C15.668 36.6914 15.4687 36.6211 15.3398 36.4453C15.2109 36.2695 15.2109 36.0703 15.3398 35.9883C15.4687 35.8828 15.668 35.9648 15.7734 36.1406C15.9023 36.3164 15.9023 36.5273 15.7734 36.6211ZM15.0117 35.4844C14.9063 35.5898 14.7305 35.5312 14.6016 35.4141C14.4727 35.2617 14.4492 35.0859 14.5547 35.0039C14.6602 34.8984 14.8359 34.957 14.9648 35.0742C15.0938 35.2266 15.1172 35.4023 15.0117 35.4844ZM14.2266 34.6172C14.1797 34.7227 14.0273 34.7461 13.8984 34.6641C13.7461 34.5938 13.6758 34.4648 13.7227 34.3594C13.7695 34.2891 13.8984 34.2539 14.0508 34.3125C14.2031 34.3945 14.2734 34.5234 14.2266 34.6172Z" fill="#F3FEFF"/>
</svg>
