<svg width="53" height="54" viewBox="0 0 53 54" fill="none" xmlns="http://www.w3.org/2000/svg">
<path d="M48.75 0.75H3.73828C1.67578 0.75 0 2.44922 0 4.53516V49.4648C0 51.5508 1.67578 53.25 3.73828 53.25H48.75C50.8125 53.25 52.5 51.5508 52.5 49.4648V4.53516C52.5 2.44922 50.8125 0.75 48.75 0.75ZM15.8672 45.75H8.08594V20.6953H15.8789V45.75H15.8672ZM11.9766 17.2734C9.48047 17.2734 7.46484 15.2461 7.46484 12.7617C7.46484 10.2773 9.48047 8.25 11.9766 8.25C14.4609 8.25 16.4883 10.2773 16.4883 12.7617C16.4883 15.2578 14.4727 17.2734 11.9766 17.2734ZM45.0352 45.75H37.2539V33.5625C37.2539 30.6562 37.1953 26.918 33.2109 26.918C29.1562 26.918 28.5352 30.082 28.5352 33.3516V45.75H20.7539V20.6953H28.2188V24.1172H28.3242C29.3672 22.1484 31.9102 20.0742 35.6953 20.0742C43.5703 20.0742 45.0352 25.2656 45.0352 32.0156V45.75Z" fill="#F3FEFF"/>
</svg>
