<svg width="53" height="54" viewBox="0 0 53 54" fill="none" xmlns="http://www.w3.org/2000/svg">
<path d="M46.875 0.75H5.625C2.51836 0.75 0 3.26836 0 6.375V47.625C0 50.7316 2.51836 53.25 5.625 53.25H46.875C49.9816 53.25 52.5 50.7316 52.5 47.625V6.375C52.5 3.26836 49.9816 0.75 46.875 0.75ZM20.8731 27.7153C10.2456 20.0024 10.3539 19.9829 7.5 17.7618V14.8125C7.5 13.2592 8.75918 12 10.3125 12H42.1875C43.7408 12 45 13.2592 45 14.8125V17.7618C42.144 19.9847 42.2538 20.0029 31.6269 27.7154C30.3964 28.6125 27.9482 30.7764 26.25 30.7499C24.5504 30.7754 22.1054 28.6139 20.8731 27.7153ZM45 22.5205V39.1875C45 40.7408 43.7408 42 42.1875 42H10.3125C8.75918 42 7.5 40.7408 7.5 39.1875V22.5205C9.1357 23.7854 11.4057 25.4779 18.6683 30.7487C20.3279 31.9605 23.1185 34.5157 26.2496 34.4999C29.4005 34.5156 32.2305 31.917 33.834 30.747C41.0947 25.4776 43.3643 23.7853 45 22.5205Z" fill="#F3FEFF"/>
</svg>
