<svg width="53" height="54" viewBox="0 0 53 54" fill="none" xmlns="http://www.w3.org/2000/svg">
<path d="M46.875 0.75H5.625C2.51953 0.75 0 3.26953 0 6.375V47.625C0 50.7305 2.51953 53.25 5.625 53.25H46.875C49.9805 53.25 52.5 50.7305 52.5 47.625V6.375C52.5 3.26953 49.9805 0.75 46.875 0.75ZM41.1445 19.3594C41.168 19.6875 41.168 20.0273 41.168 20.3555C41.168 30.5156 33.4336 42.2227 19.3008 42.2227C14.9414 42.2227 10.8984 40.957 7.5 38.7773C8.12109 38.8477 8.71875 38.8711 9.35156 38.8711C12.9492 38.8711 16.2539 37.6523 18.8906 35.5898C15.5156 35.5195 12.6797 33.3047 11.707 30.2578C12.8906 30.4336 13.957 30.4336 15.1758 30.1172C11.6602 29.4023 9.02344 26.3086 9.02344 22.5703V22.4766C10.043 23.0508 11.2383 23.4023 12.4922 23.4492C11.438 22.748 10.5738 21.7967 9.97672 20.6803C9.37964 19.5638 9.06824 18.3169 9.07031 17.0508C9.07031 15.6211 9.44531 14.3086 10.1133 13.1719C13.8984 17.8359 19.582 20.8828 25.957 21.2109C24.8672 15.9961 28.7695 11.7656 33.457 11.7656C35.6719 11.7656 37.6641 12.6914 39.0703 14.1914C40.8047 13.8633 42.4688 13.2187 43.9453 12.3398C43.3711 14.1211 42.1641 15.6211 40.5703 16.5703C42.1172 16.4062 43.6172 15.9727 45 15.375C43.957 16.9102 42.6445 18.2695 41.1445 19.3594Z" fill="#F3FEFF"/>
</svg>
