<svg width="34" height="28" viewBox="0 0 34 28" fill="none" xmlns="http://www.w3.org/2000/svg">
<path d="M22.512 27.928C21.584 27.928 20.528 27.72 19.344 27.304C18.16 26.92 16.96 26.376 15.744 25.672C14.56 24.968 13.456 24.168 12.432 23.272C11.408 22.344 10.576 21.352 9.936 20.296C9.328 19.24 9.024 18.168 9.024 17.08C9.024 15.928 9.344 14.872 9.984 13.912C10.624 12.952 11.408 12.072 12.336 11.272C13.264 10.472 14.16 9.784 15.024 9.208C16.048 8.536 17.216 7.816 18.528 7.048C19.872 6.248 21.264 5.48 22.704 4.744C24.176 3.976 25.616 3.288 27.024 2.68C28.432 2.072 29.712 1.576 30.864 1.192C31.12 1.128 31.424 1.048 31.776 0.951998C32.16 0.823999 32.48 0.76 32.736 0.76C32.8 0.76 32.88 0.776 32.976 0.808C33.072 0.808 33.12 0.872 33.12 1C33.12 1.096 33.024 1.176 32.832 1.24C32.416 1.368 31.984 1.512 31.536 1.672C31.12 1.8 30.704 1.944 30.288 2.104C28.784 2.648 27.104 3.384 25.248 4.312C23.424 5.208 21.648 6.2 19.92 7.288C18.192 8.344 16.72 9.4 15.504 10.456C14.704 11.16 13.984 11.976 13.344 12.904C12.704 13.832 12.384 14.856 12.384 15.976C12.384 16.68 12.496 17.32 12.72 17.896C13.104 19.016 13.744 20.136 14.64 21.256C15.568 22.376 16.608 23.4 17.76 24.328C18.912 25.256 20 25.992 21.024 26.536C21.344 26.664 21.648 26.776 21.936 26.872C22.224 27 22.528 27.128 22.848 27.256C23.008 27.32 23.088 27.432 23.088 27.592C23.088 27.816 22.96 27.928 22.704 27.928H22.512ZM0.96 25.72C0.8 25.72 0.72 25.608 0.72 25.384C0.72 25.256 0.736 25.16 0.768 25.096C1.088 24.072 1.504 23.096 2.016 22.168C2.528 21.208 3.04 20.28 3.552 19.384C4.672 17.4 5.824 15.48 7.008 13.624C7.136 13.4 7.456 12.904 7.968 12.136C8.48 11.336 9.088 10.408 9.792 9.352C10.496 8.296 11.2 7.272 11.904 6.28C12.608 5.256 13.216 4.408 13.728 3.736C14.24 3.064 14.56 2.728 14.688 2.728C14.944 2.728 15.328 2.872 15.84 3.16C16.352 3.416 16.688 3.656 16.848 3.88C15.184 5.736 13.584 7.656 12.048 9.64C10.512 11.624 9.04 13.656 7.632 15.736C6.608 17.304 5.616 18.872 4.656 20.44C3.696 22.008 2.72 23.576 1.728 25.144C1.632 25.272 1.52 25.4 1.392 25.528C1.296 25.656 1.152 25.72 0.96 25.72Z" fill="#F3FEFF"/>
</svg>
